<?xml version="1.0" encoding="UTF-8" standalone="no"?>
<!DOCTYPE svg PUBLIC "-//W3C//DTD SVG 1.1//EN"
 "http://www.w3.org/Graphics/SVG/1.1/DTD/svg11.dtd">
<!-- Generated by graphviz version 14.1.4 (20260321.0153)
 -->
<!-- Pages: 1 -->
<svg width="1567pt" height="210pt"
 viewBox="0.00 0.00 1567.00 210.00" xmlns="http://www.w3.org/2000/svg" xmlns:xlink="http://www.w3.org/1999/xlink">
<g id="graph0" class="graph" transform="scale(1 1) rotate(0) translate(4 206)">
<polygon fill="white" stroke="none" points="-4,4 -4,-206 1562.5,-206 1562.5,4 -4,4"/>
<!-- 4950263184 -->
<g id="node1" class="node">
<title>4950263184</title>
<polygon fill="none" stroke="black" points="1374.75,-54.5 1374.75,-90.5 1558.5,-90.5 1558.5,-54.5 1374.75,-54.5"/>
<text xml:space="preserve" text-anchor="middle" x="1386.12" y="-67.7" font-family="Times,serif" font-size="14.00">o</text>
<polyline fill="none" stroke="black" points="1397.5,-55 1397.5,-90.5"/>
<text xml:space="preserve" text-anchor="middle" x="1437.38" y="-67.7" font-family="Times,serif" font-size="14.00">data 0.0000</text>
<polyline fill="none" stroke="black" points="1477.25,-55 1477.25,-90.5"/>
<text xml:space="preserve" text-anchor="middle" x="1517.88" y="-67.7" font-family="Times,serif" font-size="14.00">grad 1.0000</text>
</g>
<!-- 4950263184tanh -->
<g id="node2" class="node">
<title>4950263184tanh</title>
<ellipse fill="none" stroke="black" cx="1311.75" cy="-72.5" rx="27" ry="18"/>
<text xml:space="preserve" text-anchor="middle" x="1311.75" y="-67.45" font-family="Times,serif" font-size="14.00">tanh</text>
</g>
<!-- 4950263184tanh&#45;&gt;4950263184 -->
<g id="edge1" class="edge">
<title>4950263184tanh&#45;&gt;4950263184</title>
<path fill="none" stroke="black" d="M1339.03,-72.5C1346.17,-72.5 1354.36,-72.5 1363.07,-72.5"/>
<polygon fill="black" stroke="black" points="1362.81,-76 1372.81,-72.5 1362.81,-69 1362.81,-76"/>
</g>
<!-- 4950262848 -->
<g id="node3" class="node">
<title>4950262848</title>
<polygon fill="none" stroke="black" points="1065,-54.5 1065,-90.5 1248.75,-90.5 1248.75,-54.5 1065,-54.5"/>
<text xml:space="preserve" text-anchor="middle" x="1076.38" y="-67.7" font-family="Times,serif" font-size="14.00">n</text>
<polyline fill="none" stroke="black" points="1087.75,-55 1087.75,-90.5"/>
<text xml:space="preserve" text-anchor="middle" x="1127.62" y="-67.7" font-family="Times,serif" font-size="14.00">data 0.0000</text>
<polyline fill="none" stroke="black" points="1167.5,-55 1167.5,-90.5"/>
<text xml:space="preserve" text-anchor="middle" x="1208.12" y="-67.7" font-family="Times,serif" font-size="14.00">grad 1.0000</text>
</g>
<!-- 4950262848&#45;&gt;4950263184tanh -->
<g id="edge6" class="edge">
<title>4950262848&#45;&gt;4950263184tanh</title>
<path fill="none" stroke="black" d="M1249.01,-72.5C1257.39,-72.5 1265.52,-72.5 1272.98,-72.5"/>
<polygon fill="black" stroke="black" points="1272.95,-76 1282.95,-72.5 1272.95,-69 1272.95,-76"/>
</g>
<!-- 4950262848+ -->
<g id="node4" class="node">
<title>4950262848+</title>
<ellipse fill="none" stroke="black" cx="1002" cy="-72.5" rx="27" ry="18"/>
<text xml:space="preserve" text-anchor="middle" x="1002" y="-67.45" font-family="Times,serif" font-size="14.00">+</text>
</g>
<!-- 4950262848+&#45;&gt;4950262848 -->
<g id="edge2" class="edge">
<title>4950262848+&#45;&gt;4950262848</title>
<path fill="none" stroke="black" d="M1029.28,-72.5C1036.42,-72.5 1044.61,-72.5 1053.32,-72.5"/>
<polygon fill="black" stroke="black" points="1053.06,-76 1063.06,-72.5 1053.06,-69 1053.06,-76"/>
</g>
<!-- 4950262704 -->
<g id="node5" class="node">
<title>4950262704</title>
<polygon fill="none" stroke="black" points="666,-82.5 666,-118.5 939,-118.5 939,-82.5 666,-82.5"/>
<text xml:space="preserve" text-anchor="middle" x="718.62" y="-95.7" font-family="Times,serif" font-size="14.00">x1*w1 + x2*w2</text>
<polyline fill="none" stroke="black" points="771.25,-83 771.25,-118.5"/>
<text xml:space="preserve" text-anchor="middle" x="814.5" y="-95.7" font-family="Times,serif" font-size="14.00">data 23.0000</text>
<polyline fill="none" stroke="black" points="857.75,-83 857.75,-118.5"/>
<text xml:space="preserve" text-anchor="middle" x="898.38" y="-95.7" font-family="Times,serif" font-size="14.00">grad 1.0000</text>
</g>
<!-- 4950262704&#45;&gt;4950262848+ -->
<g id="edge7" class="edge">
<title>4950262704&#45;&gt;4950262848+</title>
<path fill="none" stroke="black" d="M933.86,-82.02C944.67,-80.49 954.92,-79.03 964,-77.75"/>
<polygon fill="black" stroke="black" points="964.31,-81.24 973.72,-76.37 963.32,-74.31 964.31,-81.24"/>
</g>
<!-- 4950262704+ -->
<g id="node6" class="node">
<title>4950262704+</title>
<ellipse fill="none" stroke="black" cx="603" cy="-100.5" rx="27" ry="18"/>
<text xml:space="preserve" text-anchor="middle" x="603" y="-95.45" font-family="Times,serif" font-size="14.00">+</text>
</g>
<!-- 4950262704+&#45;&gt;4950262704 -->
<g id="edge3" class="edge">
<title>4950262704+&#45;&gt;4950262704</title>
<path fill="none" stroke="black" d="M630.23,-100.5C637.24,-100.5 645.33,-100.5 654.11,-100.5"/>
<polygon fill="black" stroke="black" points="654.05,-104 664.05,-100.5 654.05,-97 654.05,-104"/>
</g>
<!-- 4950262272 -->
<g id="node7" class="node">
<title>4950262272</title>
<polygon fill="none" stroke="black" points="322.88,-110.5 322.88,-146.5 536.62,-146.5 536.62,-110.5 322.88,-110.5"/>
<text xml:space="preserve" text-anchor="middle" x="349.25" y="-123.7" font-family="Times,serif" font-size="14.00">x1*w1</text>
<polyline fill="none" stroke="black" points="375.62,-111 375.62,-146.5"/>
<text xml:space="preserve" text-anchor="middle" x="415.5" y="-123.7" font-family="Times,serif" font-size="14.00">data 8.0000</text>
<polyline fill="none" stroke="black" points="455.38,-111 455.38,-146.5"/>
<text xml:space="preserve" text-anchor="middle" x="496" y="-123.7" font-family="Times,serif" font-size="14.00">grad 1.0000</text>
</g>
<!-- 4950262272&#45;&gt;4950262704+ -->
<g id="edge8" class="edge">
<title>4950262272&#45;&gt;4950262704+</title>
<path fill="none" stroke="black" d="M536.77,-111.17C546.84,-109.52 556.5,-107.94 565.17,-106.52"/>
<polygon fill="black" stroke="black" points="565.51,-110.01 574.82,-104.94 564.38,-103.1 565.51,-110.01"/>
</g>
<!-- 4950262272* -->
<g id="node8" class="node">
<title>4950262272*</title>
<ellipse fill="none" stroke="black" cx="256.5" cy="-128.5" rx="27" ry="18"/>
<text xml:space="preserve" text-anchor="middle" x="256.5" y="-123.45" font-family="Times,serif" font-size="14.00">*</text>
</g>
<!-- 4950262272*&#45;&gt;4950262272 -->
<g id="edge4" class="edge">
<title>4950262272*&#45;&gt;4950262272</title>
<path fill="none" stroke="black" d="M283.88,-128.5C291.94,-128.5 301.38,-128.5 311.5,-128.5"/>
<polygon fill="black" stroke="black" points="311.21,-132 321.21,-128.5 311.21,-125 311.21,-132"/>
</g>
<!-- 4949976912 -->
<g id="node9" class="node">
<title>4949976912</title>
<polygon fill="none" stroke="black" points="1.5,-165.5 1.5,-201.5 192,-201.5 192,-165.5 1.5,-165.5"/>
<text xml:space="preserve" text-anchor="middle" x="16.25" y="-178.7" font-family="Times,serif" font-size="14.00">x1</text>
<polyline fill="none" stroke="black" points="31,-166 31,-201.5"/>
<text xml:space="preserve" text-anchor="middle" x="70.88" y="-178.7" font-family="Times,serif" font-size="14.00">data 2.0000</text>
<polyline fill="none" stroke="black" points="110.75,-166 110.75,-201.5"/>
<text xml:space="preserve" text-anchor="middle" x="151.38" y="-178.7" font-family="Times,serif" font-size="14.00">grad 4.0000</text>
</g>
<!-- 4949976912&#45;&gt;4950262272* -->
<g id="edge9" class="edge">
<title>4949976912&#45;&gt;4950262272*</title>
<path fill="none" stroke="black" d="M167.95,-165.01C176.62,-162.35 185.31,-159.49 193.5,-156.5 203.5,-152.86 214.14,-148.31 223.73,-143.95"/>
<polygon fill="black" stroke="black" points="225.06,-147.19 232.65,-139.79 222.11,-140.84 225.06,-147.19"/>
</g>
<!-- 4950263472 -->
<g id="node10" class="node">
<title>4950263472</title>
<polygon fill="none" stroke="black" points="0,-110.5 0,-146.5 193.5,-146.5 193.5,-110.5 0,-110.5"/>
<text xml:space="preserve" text-anchor="middle" x="16.25" y="-123.7" font-family="Times,serif" font-size="14.00">w1</text>
<polyline fill="none" stroke="black" points="32.5,-111 32.5,-146.5"/>
<text xml:space="preserve" text-anchor="middle" x="72.38" y="-123.7" font-family="Times,serif" font-size="14.00">data 4.0000</text>
<polyline fill="none" stroke="black" points="112.25,-111 112.25,-146.5"/>
<text xml:space="preserve" text-anchor="middle" x="152.88" y="-123.7" font-family="Times,serif" font-size="14.00">grad 2.0000</text>
</g>
<!-- 4950263472&#45;&gt;4950262272* -->
<g id="edge10" class="edge">
<title>4950263472&#45;&gt;4950262272*</title>
<path fill="none" stroke="black" d="M193.61,-128.5C202.06,-128.5 210.23,-128.5 217.73,-128.5"/>
<polygon fill="black" stroke="black" points="217.73,-132 227.73,-128.5 217.73,-125 217.73,-132"/>
</g>
<!-- 4950264624 -->
<g id="node11" class="node">
<title>4950264624</title>
<polygon fill="none" stroke="black" points="319.5,-55.5 319.5,-91.5 540,-91.5 540,-55.5 319.5,-55.5"/>
<text xml:space="preserve" text-anchor="middle" x="345.88" y="-68.7" font-family="Times,serif" font-size="14.00">x2*w2</text>
<polyline fill="none" stroke="black" points="372.25,-56 372.25,-91.5"/>
<text xml:space="preserve" text-anchor="middle" x="415.5" y="-68.7" font-family="Times,serif" font-size="14.00">data 15.0000</text>
<polyline fill="none" stroke="black" points="458.75,-56 458.75,-91.5"/>
<text xml:space="preserve" text-anchor="middle" x="499.38" y="-68.7" font-family="Times,serif" font-size="14.00">grad 1.0000</text>
</g>
<!-- 4950264624&#45;&gt;4950262704+ -->
<g id="edge11" class="edge">
<title>4950264624&#45;&gt;4950262704+</title>
<path fill="none" stroke="black" d="M540.17,-90.75C548.95,-92.14 557.36,-93.46 565,-94.67"/>
<polygon fill="black" stroke="black" points="564.4,-98.11 574.82,-96.21 565.49,-91.2 564.4,-98.11"/>
</g>
<!-- 4950264624* -->
<g id="node12" class="node">
<title>4950264624*</title>
<ellipse fill="none" stroke="black" cx="256.5" cy="-73.5" rx="27" ry="18"/>
<text xml:space="preserve" text-anchor="middle" x="256.5" y="-68.45" font-family="Times,serif" font-size="14.00">*</text>
</g>
<!-- 4950264624*&#45;&gt;4950264624 -->
<g id="edge5" class="edge">
<title>4950264624*&#45;&gt;4950264624</title>
<path fill="none" stroke="black" d="M283.88,-73.5C290.94,-73.5 299.05,-73.5 307.76,-73.5"/>
<polygon fill="black" stroke="black" points="307.55,-77 317.55,-73.5 307.55,-70 307.55,-77"/>
</g>
<!-- 4949983152 -->
<g id="node13" class="node">
<title>4949983152</title>
<polygon fill="none" stroke="black" points="1.5,-55.5 1.5,-91.5 192,-91.5 192,-55.5 1.5,-55.5"/>
<text xml:space="preserve" text-anchor="middle" x="16.25" y="-68.7" font-family="Times,serif" font-size="14.00">x2</text>
<polyline fill="none" stroke="black" points="31,-56 31,-91.5"/>
<text xml:space="preserve" text-anchor="middle" x="70.88" y="-68.7" font-family="Times,serif" font-size="14.00">data 3.0000</text>
<polyline fill="none" stroke="black" points="110.75,-56 110.75,-91.5"/>
<text xml:space="preserve" text-anchor="middle" x="151.38" y="-68.7" font-family="Times,serif" font-size="14.00">grad 5.0000</text>
</g>
<!-- 4949983152&#45;&gt;4950264624* -->
<g id="edge12" class="edge">
<title>4949983152&#45;&gt;4950264624*</title>
<path fill="none" stroke="black" d="M192.25,-73.5C201.22,-73.5 209.92,-73.5 217.84,-73.5"/>
<polygon fill="black" stroke="black" points="217.7,-77 227.7,-73.5 217.7,-70 217.7,-77"/>
</g>
<!-- 4950263856 -->
<g id="node14" class="node">
<title>4950263856</title>
<polygon fill="none" stroke="black" points="0,-0.5 0,-36.5 193.5,-36.5 193.5,-0.5 0,-0.5"/>
<text xml:space="preserve" text-anchor="middle" x="16.25" y="-13.7" font-family="Times,serif" font-size="14.00">w2</text>
<polyline fill="none" stroke="black" points="32.5,-1 32.5,-36.5"/>
<text xml:space="preserve" text-anchor="middle" x="72.38" y="-13.7" font-family="Times,serif" font-size="14.00">data 5.0000</text>
<polyline fill="none" stroke="black" points="112.25,-1 112.25,-36.5"/>
<text xml:space="preserve" text-anchor="middle" x="152.88" y="-13.7" font-family="Times,serif" font-size="14.00">grad 3.0000</text>
</g>
<!-- 4950263856&#45;&gt;4950264624* -->
<g id="edge13" class="edge">
<title>4950263856&#45;&gt;4950264624*</title>
<path fill="none" stroke="black" d="M167.95,-36.99C176.62,-39.65 185.31,-42.51 193.5,-45.5 203.5,-49.14 214.14,-53.69 223.73,-58.05"/>
<polygon fill="black" stroke="black" points="222.11,-61.16 232.65,-62.21 225.06,-54.81 222.11,-61.16"/>
</g>
<!-- 4950263328 -->
<g id="node15" class="node">
<title>4950263328</title>
<polygon fill="none" stroke="black" points="705,-27.5 705,-63.5 900,-63.5 900,-27.5 705,-27.5"/>
<text xml:space="preserve" text-anchor="middle" x="716.38" y="-40.7" font-family="Times,serif" font-size="14.00">b</text>
<polyline fill="none" stroke="black" points="727.75,-28 727.75,-63.5"/>
<text xml:space="preserve" text-anchor="middle" x="773.25" y="-40.7" font-family="Times,serif" font-size="14.00">data &#45;23.0000</text>
<polyline fill="none" stroke="black" points="818.75,-28 818.75,-63.5"/>
<text xml:space="preserve" text-anchor="middle" x="859.38" y="-40.7" font-family="Times,serif" font-size="14.00">grad 1.0000</text>
</g>
<!-- 4950263328&#45;&gt;4950262848+ -->
<g id="edge14" class="edge">
<title>4950263328&#45;&gt;4950262848+</title>
<path fill="none" stroke="black" d="M900.22,-58.72C922.99,-61.84 945.91,-64.97 964.12,-67.46"/>
<polygon fill="black" stroke="black" points="963.48,-70.9 973.86,-68.79 964.43,-63.97 963.48,-70.9"/>
</g>
</g>
</svg>

